<svg width="11" height="13" viewBox="0 0 11 13" fill="none" xmlns="http://www.w3.org/2000/svg">
<path d="M10.6071 0.785719H7.66071L7.42991 0.326567C7.38102 0.228405 7.30571 0.145834 7.21244 0.0881414C7.11918 0.0304493 7.01167 -7.43474e-05 6.90201 4.30491e-06H4.09554C3.98612 -0.000416311 3.8788 0.0299936 3.78587 0.0877498C3.69294 0.145506 3.61815 0.228273 3.57009 0.326567L3.33929 0.785719H0.392857C0.288665 0.785719 0.18874 0.827109 0.115065 0.900784C0.0413902 0.974459 0 1.07438 0 1.17858L0 1.96429C0 2.06848 0.0413902 2.16841 0.115065 2.24208C0.18874 2.31576 0.288665 2.35715 0.392857 2.35715H10.6071C10.7113 2.35715 10.8113 2.31576 10.8849 2.24208C10.9586 2.16841 11 2.06848 11 1.96429V1.17858C11 1.07438 10.9586 0.974459 10.8849 0.900784C10.8113 0.827109 10.7113 0.785719 10.6071 0.785719ZM1.30625 11.4665C1.32499 11.7657 1.45705 12.0466 1.67555 12.2518C1.89405 12.4571 2.18257 12.5714 2.48237 12.5714H8.51763C8.81743 12.5714 9.10595 12.4571 9.32445 12.2518C9.54295 12.0466 9.67501 11.7657 9.69375 11.4665L10.2143 3.14286H0.785714L1.30625 11.4665Z" fill="#333333"/>
</svg>
