<svg width="23" height="22" viewBox="0 0 23 22" fill="none" xmlns="http://www.w3.org/2000/svg">
<path d="M20.595 8.59375H13.5442V1.5625C13.5442 0.699707 12.8425 0 11.9774 0H10.4105C9.54532 0 8.84367 0.699707 8.84367 1.5625V8.59375H1.79288C0.927695 8.59375 0.226044 9.29346 0.226044 10.1562V11.7188C0.226044 12.5815 0.927695 13.2812 1.79288 13.2812H8.84367V20.3125C8.84367 21.1753 9.54532 21.875 10.4105 21.875H11.9774C12.8425 21.875 13.5442 21.1753 13.5442 20.3125V13.2812H20.595C21.4602 13.2812 22.1618 12.5815 22.1618 11.7188V10.1562C22.1618 9.29346 21.4602 8.59375 20.595 8.59375Z" fill="#333333"/>
</svg>
